<?xml version="1.0" encoding="utf-8"?>
<!-- Generator: Adobe Illustrator 22.1.0, SVG Export Plug-In . SVG Version: 6.00 Build 0)  -->
<svg version="1.1" id="Layer_1" xmlns="http://www.w3.org/2000/svg" xmlns:xlink="http://www.w3.org/1999/xlink" x="0px" y="0px"
	 viewBox="0 0 850.4 850.4" style="enable-background:new 0 0 850.4 850.4;" xml:space="preserve">
<style type="text/css">
	.st0{fill:url(#SVGID_1_);}
	.st1{fill:url(#SVGID_2_);}
	.st2{fill:url(#SVGID_3_);}
	.st3{fill:url(#SVGID_4_);}
	.st4{fill:url(#SVGID_5_);}
	.st5{fill:url(#SVGID_6_);}
	.st6{fill:url(#SVGID_7_);}
	.st7{fill:url(#SVGID_8_);}
	.st8{fill:url(#SVGID_9_);}
	.st9{fill:url(#SVGID_10_);}
</style>
<g>
	<g>
		<g>
			<linearGradient id="SVGID_1_" gradientUnits="userSpaceOnUse" x1="251.3463" y1="585.0165" x2="782.9241" y2="585.0165">
				<stop  offset="0" style="stop-color:#8EB4BD"/>
				<stop  offset="0.2063" style="stop-color:#99D5C6"/>
				<stop  offset="0.5608" style="stop-color:#6F3C97"/>
			</linearGradient>
			<path class="st0" d="M251.4,702.1c0.3-0.4,2.6,0.5,6.5,2.7c2,1,4.5,2.3,7.4,3.9c1.4,0.8,3,1.6,4.6,2.5c1.6,0.9,3.4,1.9,5.3,2.8
				c3.7,1.9,7.9,4,12.3,6.2c4.5,2,9.4,4.2,14.6,6.6c5.1,2.1,10.8,4.3,16.9,6.7c3.1,1.1,6.3,2.1,9.5,3.2c1.6,0.6,3.3,1.1,4.9,1.7
				c1.7,0.5,3.4,1,5.1,1.5c3.4,1,6.9,2,10.5,3c3.6,1,7.4,1.8,11.1,2.7c1.9,0.4,3.8,0.9,5.7,1.4c1.9,0.4,3.9,0.7,5.8,1.1
				c3.9,0.7,7.8,1.4,11.7,2.1c15.8,2.3,33.2,3.7,52,3.8c18.6-0.1,37.1-1.4,56.2-4.5c4.8-0.9,9.6-1.6,14.2-2.6
				c4.7-1.1,9.3-2.2,13.9-3.2c4.6-1.2,9.2-2.7,13.9-4c1.2-0.3,2.3-0.7,3.5-1c1.2-0.4,2.3-0.8,3.5-1.2c2.3-0.8,4.7-1.6,7-2.5
				c2.1-0.8,4.3-1.4,6.4-2.3c2.1-0.9,4.2-1.7,6.4-2.6c2.1-0.9,4.3-1.7,6.5-2.6c2.2-0.8,4.3-1.9,6.5-2.9c2.2-1,4.4-2,6.6-2.9
				c1.1-0.5,2.2-1,3.2-1.4c1.1-0.5,2.1-1,3.1-1.6c4.2-2.1,8.3-4.1,12.3-6.1c3.9-2.2,7.7-4.3,11.4-6.3c1.9-1,3.7-2.1,5.4-3.2
				c1.8-1.1,3.5-2.2,5.2-3.3c1.7-1.1,3.4-2.1,5.1-3.2c1.7-1.1,3.2-2.3,4.9-3.4c3.2-2.3,6.5-4.6,9.8-7.1c12.9-10,25.4-21.4,37.9-33.9
				c2.8-2.9,5.5-5.8,8.3-8.7c2.7-2.9,5.2-5.9,7.7-8.8c1.3-1.5,2.5-2.9,3.8-4.3c1.2-1.4,2.4-3,3.5-4.4c2.3-3,4.6-5.9,6.9-8.7
				c17.4-23.3,29.7-45.9,38-64.2c1-2.3,2-4.5,3-6.6c0.9-2.1,1.7-4.3,2.5-6.3c1.7-4.4,3.4-8.3,4.7-11.8c2.5-7.1,4.5-12.3,5.6-15.9
				c2.3-7.5,4.6-14.3,6.1-20.9c0.8-3.3,1.7-6.5,2.5-9.6c0.6-3.2,1.3-6.2,1.9-9.2c0.6-3.4,1.5-6.5,1.9-9.6c0.5-3.1,1-5.9,1.5-8.7
				c0.4-2.7,1-5.3,1.3-7.8c0.3-2.5,0.6-4.8,0.9-7c0.3-2.2,0.6-4.2,0.8-6.2c0.1-1,0.3-1.9,0.4-2.8c0.1-0.9,0.2-1.8,0.3-2.6
				c0.3-3.4,0.6-6.2,0.9-8.5c0.6-4.6,1.1-7,1.5-6.8c0.4,0.2,0.6,3.3,0.7,8.9c0,2.8,0.1,6.1,0,10c-0.2,3.9-0.5,8.3-0.9,13.1
				c-0.1,1.2-0.2,2.4-0.3,3.7c-0.2,1.2-0.3,2.5-0.5,3.8c-0.3,2.6-0.7,5.2-1,8c-0.6,5.5-1.8,11.2-2.8,17c-0.2,1.3-0.5,2.9-0.8,4.6
				c-0.3,1.7-0.8,3.5-1.2,5.3c-0.9,3.6-1.7,7.2-2.6,10.9c-0.9,3.6-2.1,7.2-3.2,10.9c-1.1,3.6-2.2,7.3-3.5,10.9
				c-0.6,1.7-1.3,3.7-2.2,6.2c-0.9,2.4-1.8,5.3-3.2,8.4c-1.3,3.1-2.6,6.4-4.1,10c-0.4,1-0.8,2-1.2,3.1c-0.5,1-0.9,2.1-1.4,3.1
				c-1,2.1-2,4.3-3,6.6c-8.5,18.1-21,40.5-38.6,63.5c-4.6,5.6-9,11.6-14.2,17.3c-2.6,2.8-5,5.9-7.8,8.7c-2.7,2.8-5.5,5.7-8.3,8.6
				c-0.6,0.6-1.3,1.3-1.9,1.9c-0.7,0.6-1.3,1.3-2,1.9c-1.3,1.3-2.7,2.6-4.1,3.9c-2.8,2.6-5.6,5.4-8.7,8.1c-3.1,2.7-6.2,5.4-9.4,8.3
				c-3.4,2.7-6.8,5.4-10.3,8.2c-0.9,0.7-1.8,1.4-2.7,2.1c-0.9,0.7-1.9,1.3-2.8,2c-1.9,1.3-3.8,2.7-5.7,4.1c-1.9,1.4-3.9,2.8-5.9,4.1
				c-2,1.3-4.1,2.5-6.1,3.8c-4,2.5-8,5-12,7.1c-4,2.1-7.9,4.4-11.8,6.3c-3.9,1.9-7.8,3.8-11.6,5.6c-3.8,1.8-7.6,3.3-11.4,5
				c-1.8,0.8-3.7,1.6-5.7,2.5c-2,0.8-4,1.5-6,2.3c-2,0.8-4.1,1.6-6.1,2.4c-2,0.8-4.1,1.6-6.2,2.3c-4.7,1.6-9.5,3.3-14.2,4.8
				c-4.8,1.4-9.6,2.7-14.3,4.1c-4.9,1.3-9.9,2.3-14.9,3.5c-1.2,0.3-2.4,0.6-3.6,0.8l-3.6,0.6c-2.4,0.4-4.8,0.9-7.2,1.3
				c-19.1,3.2-38.5,4.9-56.4,5c-17.6,0-35.1-0.7-52.5-3.1c-4.4-0.6-8.7-1.4-12.7-2.1c-2-0.4-4-0.7-6-1.1c-2-0.4-3.9-0.9-5.8-1.3
				c-3.9-0.9-7.6-1.8-11.3-2.6c-3.7-1-7.3-2-10.8-3c-1.8-0.5-3.5-1-5.2-1.5c-1.7-0.6-3.4-1.1-5-1.7c-3.3-1.1-6.5-2.2-9.7-3.3
				c-3.1-1.1-6.1-2.4-9.1-3.5c-3-1.2-5.9-2.3-8.8-3.5c-5.5-2.6-10.7-4.8-15.3-7.1c-4.5-2.4-8.6-4.6-12.3-6.6c-3.6-2-6.7-4-9.4-5.7
				c-2.7-1.7-5-3.1-6.8-4.4C252.8,704.1,251.1,702.6,251.4,702.1z"/>
		</g>
		<g>
			<linearGradient id="SVGID_2_" gradientUnits="userSpaceOnUse" x1="80.0131" y1="413.9643" x2="785.9225" y2="413.9643">
				<stop  offset="0" style="stop-color:#8EB4BD"/>
				<stop  offset="0.2063" style="stop-color:#99D5C6"/>
				<stop  offset="0.5608" style="stop-color:#6F3C97"/>
			</linearGradient>
			<path class="st1" d="M503.2,65.4c-0.2,0.5-5.7-0.1-15.7-1.4c-2.5-0.2-5.3-0.5-8.4-0.8c-1.5-0.2-3.2-0.3-4.8-0.5
				c-1.7-0.2-3.4-0.4-5.3-0.4c-7.3-0.4-15.7-1.1-25.1-1.1c-18.8-0.2-41.7,0.6-67.6,5.1c-3.2,0.6-6.5,1.2-9.9,1.8
				c-3.3,0.6-6.7,1.5-10.1,2.2c-3.4,0.8-6.9,1.5-10.3,2.5c-3.5,1-6.9,2-10.5,3c-1.8,0.5-3.6,1-5.3,1.6c-1.8,0.6-3.6,1.2-5.4,1.8
				c-3.6,1.2-7.2,2.4-10.9,3.7c-7.2,2.9-14.8,5.6-22.3,9.1c-1.9,0.8-3.8,1.7-5.7,2.5l-2.9,1.3l-2.8,1.4c-3.7,1.9-7.5,3.8-11.3,5.7
				c-3.7,2-7.4,4.1-11.1,6.2c-1.8,1.1-3.7,2.1-5.6,3.2c-1.8,1.1-3.6,2.3-5.4,3.4c-1.8,1.2-3.7,2.3-5.4,3.5c-0.9,0.6-1.8,1.1-2.7,1.7
				l-2.6,1.8c-3.4,2.4-6.8,4.9-10.4,7.5c-7.1,5.6-14.3,11.2-21.2,17.4c-1.8,1.6-3.6,3.1-5.4,4.8c-1.8,1.7-3.6,3.4-5.4,5.1
				c-3.6,3.5-7.3,6.9-10.6,10.5c-1.7,1.7-3.3,3.5-5,5.2c-1.7,1.7-3.4,3.5-4.9,5.3c-3.2,3.7-6.5,7.3-9.6,11.1
				c-12.6,15.2-24.1,31.9-34.3,49.7c-1.3,2.2-2.6,4.4-3.8,6.7c-1.2,2.3-2.4,4.6-3.6,6.9c-1.2,2.3-2.4,4.6-3.6,6.9
				c-1.1,2.4-2.2,4.8-3.3,7.1c-1.1,2.4-2.2,4.8-3.2,7.2c-1.1,2.4-2,4.9-3.1,7.5c-2.1,5.3-4.3,10.5-6.1,15.7
				c-1.8,5.2-3.8,10.2-5.3,15.3c-0.8,2.5-1.6,5-2.3,7.5c-0.8,2.5-1.5,5-2.1,7.5c-1.2,5-2.5,9.9-3.6,14.8c-0.9,5-1.8,9.9-2.6,14.8
				c-0.8,5.1-1.2,10.3-1.8,15.7c-0.1,1.3-0.3,2.7-0.4,4c-0.1,1.4-0.2,2.7-0.2,4.1c-0.2,2.7-0.3,5.5-0.5,8.4
				c-0.5,5.6-0.3,11.4-0.5,17.4c-0.2,6.1,0,11.8,0.1,17.4c0.1,2.8,0,5.6,0.2,8.4l0.6,8.4c0.2,2.8,0.4,5.6,0.6,8.4l1,8.4
				c0,0,0.5,4.1,1,8.2c0.7,4.1,1.4,8.2,1.4,8.2l1.4,8.1c0.5,2.9,1.3,5.8,1.9,8.7c4.6,20.8,10.3,40.1,17.6,57.6
				c7.6,18.2,17.1,36.1,28.2,53.5c2.9,4.5,5.5,8.7,8.4,12.5c1.4,1.9,2.8,3.9,4.2,5.8c1.4,1.9,2.8,3.9,4.4,5.9
				c3.1,3.9,6.2,7.9,9.4,11.7c3.3,3.7,6.6,7.5,9.9,11.2c3.5,3.7,7.1,7.5,10.7,11.2c1.7,1.9,3.6,3.6,5.4,5.4c1.8,1.7,3.6,3.4,5.3,5.1
				c3.5,3.5,7.3,6.6,11,9.8c1.9,1.6,3.7,3.2,5.6,4.8l5.7,4.5c3.8,3,7.6,6,11.6,8.8c2,1.4,3.9,2.8,5.9,4.2c2,1.4,3.9,2.8,6,4.1
				c4,2.6,8.1,5.2,12.1,7.8c4.1,2.4,8.2,4.8,12.3,7.1c16.5,9.1,33.8,17,50.2,22.9c16.8,6,34.3,10.6,52.1,14.2
				c4.3,0.8,8.6,1.5,12.8,2.3c4.2,0.7,8.5,1.1,12.7,1.7c2.1,0.3,4.2,0.5,6.3,0.8c2.1,0.2,4.2,0.3,6.3,0.5c4.2,0.3,8.3,0.7,12.4,0.9
				c4.1,0.1,8.2,0.2,12.3,0.3c0,0,1.5,0,3,0.1c0.8,0,1.5,0,2.1,0.1c0.6,0,0.9,0,0.9,0l6.6-0.1c4.4-0.1,8.6-0.1,12.7-0.3
				c4.1-0.3,8.1-0.5,12-0.8c3.9-0.2,7.6-0.7,11.3-1.1c3.7-0.4,7.2-0.8,10.7-1.2c3.4-0.6,6.8-1.2,10-1.7c3.4-0.6,6.7-1.1,10-1.9
				c6.9-1.6,13.8-3,20.3-4.9c3.3-0.9,6.5-1.8,9.7-2.7c3.2-0.9,6.2-2.1,9.3-3.1c3-1,6.1-2,9-3.1c2.9-1.1,5.8-2.3,8.6-3.4
				c3-1.2,5.6-2.1,7.9-3.2c2.4-1.1,4.6-2.1,7.1-3.3c19-8.8,36.8-19.6,52-29.8c7.5-5.3,13.9-9.6,18.9-13.6c2.6-1.9,4.9-3.7,7-5.3
				c2.1-1.6,3.8-3.1,5.4-4.4c3.3-2.8,6.5-5.4,9.5-8c2.9-2.7,5.7-5.3,8.4-7.9c2.7-2.5,5.1-5,7.6-7.6c2.5-2.6,5-5.2,7.5-8
				c2.4-2.9,4.9-5.8,7.4-8.7c1.2-1.5,2.5-2.9,3.7-4.5c1.2-1.6,2.4-3.1,3.6-4.7c2.4-3.2,4.9-6.3,7.3-9.6c2.4-3.3,4.7-6.7,7.1-10.1
				c0.6-0.8,1.1-1.5,1.6-2.3c0.5-0.8,1-1.6,1.5-2.3c1-1.5,2-3.1,3-4.6c1.9-3,4-5.9,5.7-8.9c1.7-3,3.4-5.9,5.1-8.7
				c0.8-1.4,1.7-2.8,2.5-4.2c0.8-1.4,1.5-2.8,2.2-4.2c2.9-5.6,5.9-10.9,8.3-16.2c2.4-5.3,5-10.4,7-15.5c4.6-10.7,7.8-19.7,10.8-27.3
				c1.3-3.9,2.4-7.4,3.5-10.6c1-3.2,2.1-6.1,2.8-8.7c1.5-5.2,2.7-9.3,3.5-12.1c0.9-2.8,1.3-4.3,1.5-4.3c0.5,0-0.6,6.6-3.2,18.6
				c-3,11.8-8,28.9-15.3,46.5c-7.5,19.1-19.6,43.7-35.5,67.1c-1.8,2.6-3.7,5.3-5.6,8.1c-1,1.4-2,2.9-3,4.3c-1.1,1.4-2.2,2.9-3.3,4.4
				c-2.2,3-4.6,6.1-7,9.3c-2.6,3.1-5.3,6.3-8.1,9.7c-2.7,3.4-5.9,6.7-9.2,10.2c-1.6,1.7-3.3,3.5-5,5.3c-1.7,1.8-3.5,3.4-5.3,5.1
				c-1.8,1.7-3.5,3.3-5.3,4.9c-1.7,1.6-3.5,3.2-5.3,4.7c-3.6,3-7.1,6-10.6,8.9c-3.4,2.6-7.6,5.8-12.3,9.3c-4.8,3.5-10.3,7.2-16,11.2
				c-11.8,7.6-27.2,17.8-49.6,28.5c-2.8,1.3-5.7,2.6-8.8,4c-0.8,0.3-1.5,0.7-2.3,1c-0.8,0.3-1.6,0.6-2.4,0.9l-4.3,1.7
				c-2.9,1.1-5.8,2.2-8.7,3.4c-3,1.1-6,2-9.1,3.1c-3.1,1-6.2,2.1-9.4,3.1c-3.2,0.9-6.5,1.8-9.8,2.7c-6.5,2-13.4,3.3-20.4,5
				c-3.3,0.8-7.2,1.4-11.1,2.1c-4,0.6-8.1,1.5-11.9,1.9c-7.9,0.8-15.6,1.9-23.2,2.2c-3.8,0.2-7.6,0.4-11.3,0.7
				c-3.7,0-7.4,0.1-11.1,0.1c-6.8,0.3-15.4-0.1-23.6-0.3c-4.1-0.1-8.3-0.6-12.5-0.9c-4.2-0.3-8.4-0.6-12.7-1.3
				c-4.2-0.6-8.5-1.1-12.8-1.7c-4.3-0.8-8.5-1.5-12.9-2.3c-16.6-3.3-33.7-7.4-51.4-13.8c-18.1-6.4-35.1-14.1-51.8-23.2
				c-16.6-9.3-32.8-20-48.3-32c-1.9-1.5-3.8-3-5.8-4.6l-2.9-2.3l-2.8-2.4c-3.7-3.3-7.5-6.4-11.1-9.8c-3.6-3.4-7.1-6.9-10.7-10.3
				c-3.3-3.4-6.5-6.8-9.8-10.3c-0.8-0.9-1.7-1.7-2.5-2.6c-0.8-0.9-1.6-1.8-2.4-2.7c-1.6-1.8-3.2-3.7-4.9-5.6
				c-1.6-1.9-3.3-3.7-4.9-5.7c-1.6-2-3.2-4-4.8-6c-1.6-2-3.2-4-4.8-6.1c-1.6-2.1-3.1-4.3-4.6-6.4c-1.5-2.1-3.1-4.4-4.6-6.5
				c-1.6-2.2-2.9-4.4-4.2-6.4c-10.7-16.5-20.7-34.5-28.9-54c-8.6-20.2-14.4-40.4-18.5-59.3c-1.2-5.4-2.3-10-3.2-16
				c0,0-0.7-4.3-1.5-8.5c-0.4-2.1-0.7-4.3-0.8-5.9c-0.2-1.6-0.3-2.7-0.3-2.7c-1.5-11.1-2.3-22.3-2.7-33.5
				c-0.1-5.4-0.3-11.1-0.3-16.2c0.1-5,0.2-10.1,0.3-15.4c0.2-5.3,0.6-10.6,0.9-16.1c0.1-2.8,0.4-5.5,0.7-8.3
				c0.3-2.8,0.6-5.7,0.9-8.5c1.4-11.4,3.8-24,6.7-35.1c0.3-1.4,0.7-2.8,1-4.2c0.4-1.4,0.8-2.7,1.2-4.1c0.8-2.7,1.6-5.3,2.4-7.9
				c1.5-5.2,3.5-10.2,5.2-15c0.9-2.4,1.7-4.8,2.6-7.2c0.9-2.3,1.9-4.6,2.8-6.9c0.9-2.2,1.8-4.5,2.8-6.9c0.9-2.4,2.1-4.8,3.2-7.3
				c2.2-4.8,4.3-9.7,6.8-14.4c1.2-2.3,2.4-4.7,3.6-7l1.8-3.5l1.9-3.4c10.1-18.3,21.7-35.4,34.4-50.9c1.5-2,3.1-3.9,4.8-5.8
				c1.6-1.9,3.3-3.8,4.9-5.6c3.2-3.8,6.6-7.3,10-10.9l5-5.3l4.8-4.7c1.6-1.6,3.3-3.1,4.9-4.7c1.6-1.6,3.3-3.2,5-4.7
				c3.6-3.2,7.1-6.3,10.6-9.4c3.7-3,7.3-5.9,10.9-8.8c1.8-1.5,3.8-2.9,5.8-4.4c2-1.4,4-2.9,6-4.3c3.9-2.9,8.1-5.5,11.9-7.9
				c3.9-2.5,7.7-5,11.6-7.1c3.9-2.2,7.7-4.4,11.5-6.5c3.9-2,7.6-3.9,11.4-5.8c0.9-0.5,1.9-0.9,2.8-1.4c0.9-0.4,1.9-0.8,2.8-1.3
				c1.9-0.8,3.7-1.7,5.6-2.5C319,74.7,349,66.5,375.3,62c26.5-4.5,49.9-5.2,69-4.7c9.6,0.1,18.1,1,25.4,1.6
				c7.4,0.8,13.6,1.9,18.6,2.6C498.3,63.5,503.5,64.9,503.2,65.4z"/>
		</g>
		<g>
			<linearGradient id="SVGID_3_" gradientUnits="userSpaceOnUse" x1="89.7456" y1="355.0285" x2="755.8192" y2="355.0285">
				<stop  offset="0" style="stop-color:#8EB4BD"/>
				<stop  offset="0.2063" style="stop-color:#99D5C6"/>
				<stop  offset="0.5608" style="stop-color:#6F3C97"/>
			</linearGradient>
			<path class="st2" d="M755.7,282.7c-0.6,0.1-2.2-3.4-5.5-9.5c-1.6-3-3.4-6.9-5.9-11.3c-1.2-2.2-2.6-4.6-4-7.2
				c-1.5-2.6-2.9-5.4-4.7-8.3c-1.8-2.9-3.7-6-5.7-9.4c-1-1.7-2.1-3.4-3.3-5.1c-1.2-1.7-2.3-3.5-3.6-5.4c-1.2-1.9-2.5-3.8-3.8-5.8
				c-1.4-1.9-2.7-3.8-4.1-5.8c-2.8-3.9-5.5-7.9-8.5-11.8c-5.6-7.5-11.9-15.2-18.9-23.1c-3.4-3.7-6.8-7.4-10.4-11
				c-4.1-3.8-8.1-7.9-12.5-11.8c-17.4-15.7-38.3-31.2-61.5-44.1c-1.5-0.8-2.9-1.7-4.4-2.5c-1.5-0.8-3-1.5-4.6-2.3
				c-3.1-1.6-6.2-3.1-9.3-4.7c-3.2-1.5-6.4-2.9-9.7-4.4c-3.3-1.5-6.5-3-10-4.3c-3.5-1.4-6.6-2.6-9.8-3.9c-1.6-0.6-3.2-1.2-4.8-1.7
				c-1.6-0.5-3.3-1.1-5-1.6c-3.4-1.1-6.7-2.3-10.2-3.2c-3.5-0.9-7.1-1.9-10.7-2.9c-3.5-1-7.3-1.8-11.1-2.6c-1.9-0.4-3.8-0.8-5.7-1.3
				c-1.9-0.4-3.8-0.9-5.8-1.2c-3.9-0.7-7.9-1.4-11.8-2.1l-3-0.5l-3-0.4c-2-0.3-4-0.5-6-0.8c-7.9-1.3-15.7-1.8-23.4-2.5
				c-3.8-0.4-7.7-0.4-11.5-0.5c-3.8-0.1-7.6-0.4-11.3-0.2c-7.4,0.2-14.8,0.2-22.4,1.1c-3.8,0.4-7.6,0.6-11.5,1.2
				c-3.9,0.6-7.8,1.1-11.8,1.7c-4,0.5-8,1.5-12,2.2c-4.1,0.8-8.2,1.5-12.4,2.6c-4.2,1-8.3,2-12.4,2.9c-4,1.1-7.9,2.3-11.9,3.4
				c-1.8,0.5-3.6,1-5.3,1.6c-1.8,0.6-3.5,1.2-5.3,1.8c-3.5,1.2-7,2.3-10.4,3.5c-3.4,1.3-6.8,2.6-10.1,4c-1.7,0.7-3.3,1.3-5,2
				c-1.6,0.7-3.2,1.5-4.8,2.2c-3.2,1.5-6.4,2.9-9.6,4.4c-3.2,1.6-6.3,3.3-9.4,4.9c-1.6,0.8-3.2,1.7-4.7,2.5
				c-1.6,0.8-3.1,1.8-4.7,2.7c-3.1,1.8-6.2,3.7-9.3,5.5c-3.1,1.9-6.1,4-9.2,6c-3.1,2-6.2,4-9.2,6.3c-3,2.2-6.1,4.4-9.2,6.6
				c-3,2.3-6,4.7-9,7c-1.5,1.2-3,2.3-4.4,3.4c-1.4,1.2-2.8,2.4-4.2,3.5c-2.8,2.3-5.5,4.7-8.1,6.9c-2.6,2.4-5.1,4.7-7.5,7
				c-2.5,2.3-4.9,4.6-7.1,7c-17.9,18.4-34.4,40.3-48.8,64.5c-3.4,6-6.9,11.7-9.8,17.5c-1.5,2.9-3,5.7-4.4,8.5
				c-1.4,2.8-2.6,5.7-3.9,8.4c-1.2,2.8-2.5,5.5-3.7,8.2c-1.1,2.7-2.1,5.4-3.2,8.1c-1.1,2.8-2.3,5.6-3.2,8.5
				c-0.9,2.8-1.9,5.7-2.8,8.5c-2,5.6-3.4,11.2-5,16.7c-1.7,5.5-2.7,11-4,16.4c-1.3,5.3-2.1,10.7-3,15.9c-0.4,2.5-0.9,4.9-1.2,7.4
				c-0.3,2.5-0.6,4.9-0.9,7.4c-0.3,2.5-0.6,5-0.9,7.5c-0.3,2.5-0.3,4.9-0.5,7.3c-0.2,2.4-0.3,4.8-0.5,7.2c-0.1,1.2-0.1,2.3-0.2,3.5
				c-0.1,1.2,0,2.3-0.1,3.5c-0.1,4.7-0.2,9.4-0.2,14c0.1,4.6,0.2,9,0.4,12.9c0.1,2,0.1,4,0.2,6c0.2,2,0.3,3.9,0.5,5.8
				c0.3,3.8,0.6,7.4,0.9,10.9c0.5,3.5,0.9,6.8,1.3,10c0.4,3.2,0.7,6.2,1.3,9c1,5.7,1.9,10.7,2.8,15.1c0.9,4,1.7,7.3,2.4,10
				c2.8,11.7,6.6,23.7,10.7,35.4c0.5,1.5,1,2.9,1.6,4.4l1.7,4.4c1.1,2.9,2.2,5.8,3.3,8.7c2.4,5.6,4.7,10.9,6.7,15.7
				c2.3,4.8,4.4,9.2,6.3,13.3c2.1,4.1,4.2,7.9,6.1,11.4c1,1.8,1.9,3.5,2.8,5.1c1,1.6,2,3.2,2.9,4.7c2,3.2,3.9,6.4,5.9,9.4
				c8,11.8,15.4,21,20.7,27.6c5.5,6.4,8.6,10.4,9,11.3c0.3,0.9-2.4-1.3-7.9-6.8c-1.4-1.4-2.9-2.9-4.7-4.7c-1.7-1.8-3.5-3.9-5.4-6.1
				c-2-2.3-4.2-4.7-6.4-7.5c-2.2-2.8-4.5-5.9-7-9.1c-2.5-3.2-4.9-6.9-7.5-10.8c-1.3-2-2.7-4.1-4.1-6.2c-1.3-2.2-2.5-4.4-3.8-6.6
				c-1.3-2.2-2.5-4.5-3.8-6.7c-1.3-2.2-2.3-4.6-3.5-6.9c-2.3-4.6-4.7-9.2-6.6-13.9c-1-2.4-2-4.7-3-7c-1-2.3-2-4.5-2.9-6.8
				c-1.8-4.6-3.7-9.3-5.6-14.4c-1.7-5.1-3.7-10.4-5.5-16.1c-0.8-2.9-1.7-5.8-2.6-8.8c-0.9-3-1.9-6.1-2.6-9.4
				c-0.7-3.1-1.7-7-2.8-11.8c-0.9-4.4-1.7-9.5-2.8-15.2c-0.6-2.9-0.9-5.9-1.3-9.1c-0.4-3.2-0.8-6.6-1.3-10.1
				c-0.4-3.5-0.6-7.2-0.9-11c-0.3-3.8-0.7-7.8-0.7-11.9c-0.1-4.2-0.2-8.3-0.3-12.4c0-4.1,0.1-8.4,0.2-12.9c0.1-2.3,0-4.7,0.2-7
				c0.2-2.4,0.3-4.8,0.5-7.2c0.3-4.9,0.6-9.9,1.3-14.9c2.4-21.7,6.9-43.1,14.3-65.9c1-2.8,1.9-5.7,2.9-8.5c0.5-1.4,1-2.9,1.5-4.3
				c0.6-1.4,1.1-2.8,1.7-4.3c1.2-3,2.4-6.1,3.6-9.1c1.2-3.1,2.7-6,4-9c1.4-2.9,2.7-5.9,4.1-8.8c1.5-2.9,3-5.7,4.5-8.5
				c2.8-5.7,6.2-11.1,9.3-16.5c0.8-1.3,1.6-2.6,2.3-4c0.8-1.3,1.7-2.6,2.5-3.9c1.7-2.6,3.4-5.3,5.1-8c1.7-2.7,3.7-5.3,5.5-8
				c1.9-2.7,3.8-5.5,5.8-8.2c2.1-2.7,4.2-5.4,6.3-8.2c1.1-1.4,2.1-2.8,3.2-4.2c1.2-1.4,2.3-2.7,3.5-4.1c2.4-2.7,4.7-5.5,7.2-8.4
				c2.6-2.7,5.2-5.4,7.8-8.2c1.3-1.4,2.7-2.7,4-4.1c1.4-1.3,2.7-2.6,4.1-3.8c2.7-2.5,5.4-5,8.1-7.5c2.8-2.3,5.5-4.6,8.2-6.9
				c1.3-1.1,2.7-2.3,4-3.4c1.4-1.1,2.7-2.1,4.1-3.2c2.8-2.1,5.4-4.1,8-6.2c2.6-2,5.4-3.9,8.2-5.9c1.4-1,2.8-2,4.3-3.1
				c1.4-1,2.9-2.1,4.4-3c3-1.9,6-3.9,9-5.9c3-2,6.2-3.8,9.4-5.7c3.2-1.8,6.3-3.8,9.7-5.5c6.7-3.4,13.3-7.1,20.5-10.1
				c1.8-0.8,3.5-1.6,5.2-2.4c1.7-0.8,3.5-1.6,5.3-2.2c3.5-1.4,7.1-2.7,10.5-4.1l2.6-1l2.6-0.9c1.8-0.6,3.5-1.2,5.3-1.7
				c3.5-1.1,6.9-2.4,10.5-3.3c3.8-1.1,7.7-2.1,11.5-3.2c1-0.3,1.9-0.5,2.9-0.8c1-0.2,1.9-0.4,2.9-0.7c1.9-0.4,3.8-0.9,5.6-1.3
				c1.8-0.4,3.7-0.9,5.5-1.3c0.9-0.2,1.9-0.4,2.8-0.7c0.9-0.2,1.9-0.4,2.8-0.5c3.8-0.7,7.6-1.5,11.5-2.2c1.9-0.4,3.9-0.7,5.9-1
				c2-0.3,4-0.6,6-0.9c4-0.6,8.1-1.3,12.2-1.5c4.2-0.4,8.4-0.7,12.6-1.1c4.3-0.2,8.6-0.3,12.9-0.4c2.1,0,4.2-0.1,6.3-0.1
				c2.1,0.1,4.2,0.1,6.2,0.2c4.1,0.2,8.2,0.2,12.2,0.5c8,0.8,15.7,1.2,23.1,2.4c3.7,0.5,7.3,1,10.9,1.5c3.6,0.6,7.1,1.2,10.7,1.9
				c1.8,0.3,3.5,0.6,5.3,0.9c1.8,0.3,3.5,0.8,5.3,1.1c3.6,0.8,7.1,1.5,10.8,2.3c14.2,3.6,29.4,7.7,43.6,13.6
				c6.7,2.4,13,5.5,19.5,8.3c3.2,1.4,6.3,3.1,9.5,4.6c3.1,1.6,6.3,3.1,9.3,4.8c24.9,13.6,46,29,64.1,44.9c2.3,1.9,4.4,4,6.6,6
				c2.1,2,4.3,4,6.3,6c4.6,4.5,8.8,9.1,12.8,13.4c3.8,4.4,7.3,8.6,10.6,12.6c3.1,4.1,6.1,8,8.9,11.7c1.4,1.8,2.7,3.7,3.9,5.5
				c1.2,1.8,2.4,3.5,3.6,5.2c1.2,1.7,2.3,3.3,3.4,4.9c1,1.6,2.1,3.2,3,4.7c2,3.1,4,6.2,6,9.2c1.8,3.1,3.6,6.1,5.3,9
				c3.5,5.8,6.3,11.5,8.9,16.4c2.6,4.9,4.4,9.5,6,13.2C755.2,278.6,756.2,282.6,755.7,282.7z"/>
		</g>
		<g>
			<linearGradient id="SVGID_4_" gradientUnits="userSpaceOnUse" x1="419.4077" y1="638.8613" x2="748.2245" y2="638.8613">
				<stop  offset="0" style="stop-color:#8EB4BD"/>
				<stop  offset="0.2063" style="stop-color:#99D5C6"/>
				<stop  offset="0.5608" style="stop-color:#6F3C97"/>
			</linearGradient>
			<path class="st3" d="M419.4,744.1c-0.2-1,5.5-1.5,15.5-1.5c5-0.2,10.9-0.4,17.5-0.5c3.3-0.2,6.8-0.4,10.5-0.7
				c1.8-0.1,3.7-0.2,5.6-0.3c1.9-0.1,3.8-0.4,5.8-0.6c15.4-1.4,34.7-4.7,54.5-10.2c5-1.2,10-3,15.1-4.6c5.1-1.5,10.1-3.6,15-5.4
				c2.4-1,4.8-1.8,7.2-2.9c2.4-1.1,4.8-2.2,7.3-3.3c2.4-1.2,5-2.2,7.4-3.6c2.4-1.3,4.9-2.6,7.4-3.9c4.5-2.3,9-5,13.5-7.7
				c2.3-1.4,4.6-2.6,6.9-4.1c2.3-1.5,4.6-2.9,6.9-4.4c4.7-2.9,9-6.1,13.4-9c4.4-2.9,8.4-6.1,12.3-9c2-1.5,3.9-2.9,5.8-4.4
				c1.8-1.5,3.6-3,5.4-4.5c1.8-1.5,3.5-2.9,5.2-4.4c1.7-1.4,3.2-3,4.8-4.4c3.1-2.9,6.2-5.6,8.8-8.5c2.9-3.1,5.8-6.1,8.5-9
				c2.8-3,5.3-6.1,7.8-9c1.3-1.5,2.5-2.9,3.7-4.3c1.1-1.5,2.2-2.9,3.3-4.3c2.2-2.8,4.3-5.5,6.2-8c1.8-2.6,3.6-5.1,5.2-7.4
				c1.7-2.4,3.3-4.6,4.7-6.7c1.4-2.1,2.6-4.1,3.7-5.8c2-3.2,3.7-5.7,4.7-7.3c4.1-7.2,8.2-13.9,11.5-20.3c1.6-3.2,3.4-6.1,4.8-9
				c1.4-2.9,2.8-5.5,4-8c2.6-4.8,4.3-8.8,5.8-11.5c1.4-2.7,2.4-4.1,2.8-4c0.4,0.1,0.2,1.6-0.5,4.3c-0.4,1.3-0.8,3-1.4,4.9
				c-0.3,1-0.6,2-1,3.1c-0.4,1.1-0.9,2.2-1.3,3.5c-2,4.8-4.2,11-7.6,17.7c-0.8,1.7-1.7,3.4-2.6,5.3c-0.9,1.8-1.8,3.7-2.9,5.5
				c-2.1,3.7-4.4,7.7-6.7,11.8c-1.2,1.9-3.1,4.7-5.4,8.4c-1.1,1.7-2.3,3.5-3.6,5.5c-1.4,2-2.9,4.1-4.6,6.3c-1.7,2.3-3.4,4.8-5.4,7.4
				c-2,2.5-4.2,5.2-6.4,8c-1.1,1.4-2.3,2.9-3.5,4.3c-1.3,1.4-2.5,2.9-3.8,4.4c-1.3,1.5-2.6,3-4,4.5c-1.4,1.5-2.7,3.1-4.3,4.6
				c-3,3.1-6.1,6.2-9.3,9.5c-3.5,3.3-7.2,6.7-10.8,10c-7.4,6.3-14.9,12.3-22.5,17.8c-3.7,2.9-7.7,5.4-11.5,8
				c-1.9,1.3-3.8,2.6-5.8,3.9c-1.9,1.2-3.9,2.4-5.9,3.6c-7.7,4.9-16.2,9.8-25.2,14.6c-10,5.2-20.5,10.4-31.6,14.8
				c-2.8,1.1-5.4,2.1-8,3.1c-2.6,1.1-5.2,1.8-7.8,2.7c-5.1,1.7-10,3.4-15.2,4.8c-10.1,3-19.9,5.2-29.2,7.1
				c-4.7,0.8-9.3,1.7-13.8,2.5c-4.5,0.6-9,1.1-13.4,1.7c-1.1,0.1-2.1,0.3-3.2,0.4c-1,0.1-2.1,0.1-3.1,0.2c-2,0.1-4,0.3-5.9,0.4
				c-1.9,0.1-3.7,0.2-5.5,0.4c-0.9,0.1-1.8,0.1-2.6,0.2c-0.9,0-1.7,0-2.5,0c-6.6,0-12.2,0.2-16.7-0.1
				C424.6,745.8,419.6,745.1,419.4,744.1z"/>
		</g>
		<g>
			<linearGradient id="SVGID_5_" gradientUnits="userSpaceOnUse" x1="101.1059" y1="407.1581" x2="766.2861" y2="407.1581">
				<stop  offset="0" style="stop-color:#8EB4BD"/>
				<stop  offset="0.2063" style="stop-color:#99D5C6"/>
				<stop  offset="0.5608" style="stop-color:#6F3C97"/>
			</linearGradient>
			<path class="st4" d="M766,372.5c-0.3,0-0.7-1.2-1.2-3.5c-0.2-1.1-0.5-2.5-0.8-4.2c-0.1-0.8-0.3-1.7-0.5-2.7c-0.2-1-0.4-2-0.7-3
				c-0.5-2.2-1-4.6-1.5-7.2c-0.6-2.6-1-5.5-1.9-8.6c-1.6-6.2-3.1-13.3-5.6-21.1c-1.2-3.9-2.3-8.1-3.9-12.3c-0.8-2.2-1.5-4.5-2.4-6.9
				c-0.4-1.2-0.8-2.4-1.2-3.6c-0.4-1.2-0.9-2.4-1.4-3.5c-0.9-2.4-1.9-4.8-2.8-7.2c-0.9-2.4-1.9-4.9-3-7.4c-1.1-2.5-2.2-4.9-3.3-7.4
				c-1.1-2.5-2.2-5-3.5-7.5c-1.3-2.5-2.5-5-3.8-7.5c-0.6-1.3-1.3-2.5-1.9-3.8c-0.7-1.2-1.4-2.5-2.1-3.7c-2.9-4.9-5.5-9.8-9-14.9
				c-1.7-2.5-3.4-5.1-5.2-7.8c-1.8-2.6-3.8-5.2-5.8-8c-3.9-5.5-8.5-11-13.2-16.8c-2.3-2.9-5.1-5.9-7.4-8.6c-1.2-1.4-2.4-2.7-3.6-4.1
				c-1.2-1.4-2.5-2.6-3.8-4c-2.5-2.7-5.1-5.3-7.7-8c-2.7-2.6-5.4-5.2-8.2-7.8c-2.7-2.7-5.6-5.2-8.6-7.7c-1.5-1.3-2.9-2.5-4.4-3.8
				l-2.2-1.9l-2.3-1.8c-2.9-2.3-6.3-5-9.7-7.7c-3.5-2.6-7.2-5.2-10.5-7.7c-0.9-0.6-1.7-1.3-2.6-1.9c-0.9-0.6-1.7-1.2-2.6-1.8
				c-1.7-1.2-3.5-2.3-5.2-3.5c-1.7-1.2-3.4-2.3-5.1-3.4c-1.7-1.1-3.5-2.1-5.2-3.2c-3.5-2.1-6.8-4.2-10.3-6.1
				c-3.5-1.8-6.9-3.6-10.3-5.4c-14.4-7-30.5-13.3-48.3-18.7c-4.4-1.2-9.1-2.6-13.6-3.8c-4.4-1.2-8.8-2.1-13.2-3.1
				c-4.4-1.1-8.9-1.8-13.5-2.6c-2.3-0.4-4.5-0.8-6.8-1.2c-2.3-0.3-4.6-0.6-6.9-0.9c-2.3-0.3-4.6-0.6-6.9-0.9l-3.5-0.4l-3.5-0.3
				c-4.6-0.3-9.2-0.7-13.8-1c-4.6-0.1-9.3-0.2-13.9-0.3c-2.3-0.1-4.7,0-7,0.1c-2.3,0.1-4.7,0.2-7.1,0.2c-4.7,0.1-9.5,0.5-14.3,0.9
				c-2.4,0.2-4.8,0.4-7.2,0.6c-2.4,0.2-4.8,0.6-7.2,0.9c-4.9,0.7-10,1.2-15,2.1c-2.5,0.4-5,0.8-7.5,1.2c-1.2,0.2-2.5,0.4-3.7,0.6
				c-1.2,0.3-2.4,0.5-3.6,0.8c-4.8,1.1-9.5,1.9-14.1,3.1c-4.6,1.2-9,2.4-13.5,3.6c-4.5,1.4-8.3,2.8-13,4.3c0,0-3.5,1.1-6.8,2.5
				c-3.4,1.4-6.8,2.7-6.8,2.7c-16.3,6.7-32.1,14.7-47.1,23.8c-15,9.3-29.2,19.7-42.4,31c-3.4,3-6.6,5.6-9.4,8.4
				c-2.8,2.8-5.6,5.5-8.6,8.5c-1.5,1.5-2.9,3.1-4.4,4.6l-4.3,4.7c-1.4,1.6-2.9,3.1-4.3,4.7l-4,4.9c-2.8,3.3-5.8,6.8-8.5,10.5
				c-1.4,1.8-2.8,3.7-4.2,5.5c-1.4,1.8-2.8,3.6-4.1,5.5c-2.6,3.6-5.1,7.2-7.6,10.7c-2.3,3.6-4.7,7.2-6.9,10.8
				c-0.6,0.9-1.2,1.8-1.7,2.7l-1.6,2.7c-1,1.8-2.1,3.6-3.1,5.4c-1,1.8-2.1,3.6-3.1,5.3c-0.9,1.8-1.9,3.6-2.8,5.4
				c-1.8,3.5-3.7,7-5.4,10.7c-1.6,3.7-3.3,7.4-5,11.2c-6.2,15.1-11.5,30.3-15.4,45.5c-0.6,2-1,4.1-1.5,6.1c-0.5,2-0.9,4.1-1.4,6.1
				c-0.5,2-0.9,4-1.4,6c-0.4,2-0.7,4-1.1,6c-0.7,3.9-1.6,7.8-2.1,11.6c-0.5,3.8-1,7.5-1.5,11c-0.6,3.6-0.8,7.1-1.1,10.6
				c-0.3,3.4-0.5,6.8-0.8,10c-0.1,3.7-0.2,7.3-0.2,10.9c0,1.8-0.1,3.6-0.1,5.4c0,1.8,0.1,3.6,0.1,5.4c0.1,3.6,0.2,7.1,0.3,10.6
				c0.1,3.5,0.5,7,0.8,10.4c0.1,1.7,0.3,3.4,0.4,5.1c0.1,1.7,0.3,3.4,0.5,5.1c0.4,3.4,0.9,6.7,1.3,10c0.2,1.5,0.4,3.1,0.6,4.6
				c0.3,1.5,0.6,3,0.8,4.6c0.6,3,1.1,6,1.7,9c0.3,1.5,0.6,3,1,4.5l1.1,4.5c0.7,3,1.5,6,2.2,9c0.9,2.9,1.8,5.9,2.6,8.9l1.3,4.4
				c0.4,1.5,0.9,3,1.4,4.4c1,2.9,2,5.9,3,8.7c0.5,1.4,1,2.9,1.4,4.2c0.5,1.3,1,2.7,1.5,3.9c3.9,10.4,8.2,20,12.5,28.8
				c2.3,4.4,4.3,8.6,6.5,12.6c2.3,4,4.5,7.8,6.6,11.4c2,3.3,4.1,6.4,6.1,9.4c1,1.5,2,3,2.9,4.5c1,1.4,2,2.8,3,4.2
				c2,2.7,3.9,5.3,5.7,7.8c1.8,2.5,3.7,4.7,5.4,6.8c1.7,2.1,3.3,4.1,4.7,5.9c1.5,1.8,2.9,3.4,4.2,4.8c2.7,3,5.3,6.2,8,9.1
				c2.5,2.7,5.1,5.4,7.6,8c2.4,2.7,5.1,5.1,7.7,7.6c1.3,1.2,2.6,2.5,3.8,3.7l1.9,1.8l2,1.7c5.3,4.6,10.3,9.2,15.5,13.2
				c2.6,2,5.1,4.2,7.7,6.1c2.6,1.9,5.3,3.8,7.9,5.8c21,15,39.9,25.3,55.6,32.4c15.9,7.1,30.1,12.1,39.7,15.1c4.9,1.5,8.5,2.9,11,3.6
				c2.5,0.8,3.7,1.3,3.6,1.5c-0.1,0.2-1.4,0.1-3.9-0.3c-2.5-0.4-6.1-1.3-10.8-2.4c-2.3-0.6-5-1.2-7.8-2c-2.8-0.9-6-1.8-9.4-2.8
				c-1.7-0.5-3.5-1.1-5.3-1.6c-1.8-0.7-3.7-1.4-5.7-2.1c-2-0.7-4-1.5-6.1-2.3c-1.1-0.4-2.1-0.8-3.2-1.2c-1.1-0.5-2.2-0.9-3.3-1.4
				c-18.2-7.5-38.3-18.5-58.4-32.5c-2.5-1.7-5-3.5-7.6-5.4c-2.6-1.9-5.1-4-7.8-6.1c-5.4-4.1-10.6-8.7-15.9-13.3
				c-1.4-1.1-2.7-2.3-3.9-3.6c-1.3-1.2-2.6-2.5-3.9-3.7c-2.6-2.5-5.3-4.9-7.8-7.7c-2.5-2.7-5.1-5.4-7.7-8.1c-2.4-2.6-4.6-5.2-7-7.9
				c-1.1-1.3-2.4-2.7-3.8-4.4c-1.4-1.6-2.9-3.5-4.5-5.6c-1.6-2-3.4-4.3-5.4-6.7c-1.9-2.4-3.8-5.2-5.9-8.1
				c-4.3-5.7-8.7-12.7-13.7-20.5c-2.1-3.7-4.3-7.5-6.6-11.5c-2.3-4-4.3-8.3-6.6-12.7c-0.6-1.1-1.1-2.2-1.7-3.3
				c-0.5-1.1-1-2.3-1.6-3.5c-1-2.3-2.1-4.7-3.2-7.1c-2.3-4.8-4-9.9-6.1-15.1c-1.1-2.7-2.1-5.2-2.9-7.8c-0.9-2.5-1.7-5.1-2.6-7.6
				c-1.9-5.2-3.3-10.8-5.1-16.6c-0.4-1.5-0.9-2.9-1.3-4.4c-0.4-1.5-0.7-3-1.1-4.6c-0.7-3.1-1.5-6.3-2.3-9.5c-0.8-3.2-1.3-6.6-1.9-10
				c-0.3-1.7-0.6-3.4-0.9-5.2c-0.2-0.9-0.3-1.8-0.5-2.6c-0.1-0.9-0.2-1.8-0.3-2.7c-0.4-3.3-0.8-6.7-1.3-10c-0.2-1.7-0.5-3.4-0.6-5.1
				c-0.1-1.7-0.3-3.4-0.4-5.2c-0.3-3.5-0.5-6.9-0.8-10.5c-0.1-3.5-0.2-7.1-0.3-10.7c-0.3-7.2,0.1-14.4,0.2-21.8c0-2,0.2-3.9,0.3-5.9
				c0.2-2,0.3-4,0.5-6c0.3-4,0.6-8.1,1.3-11.9c0.6-3.9,1.1-7.7,1.6-11.5c0.7-3.8,1.4-7.5,2.1-11.1c0.4-1.8,0.7-3.6,1-5.4
				c0.4-1.8,0.9-3.6,1.3-5.3c0.8-3.5,1.7-7,2.5-10.5c4-15.3,9-30.7,15.3-45.9c1.6-3.8,3.3-7.5,5-11.3c0.9-1.9,1.7-3.8,2.6-5.7
				c1-1.9,2-3.8,3-5.8c3.8-7.8,8.3-15.1,12.6-22.4c2.3-3.5,4.6-7.1,6.9-10.6c1.1-1.8,2.3-3.5,3.5-5.1c1.2-1.7,2.4-3.4,3.6-5
				c1.2-1.7,2.4-3.4,3.6-5c1.2-1.6,2.4-3.1,3.6-4.6c2.4-3,4.7-6.2,7.3-9.4c2.6-3.1,5.3-6.3,8.1-9.6c2.8-3.3,5.8-6.4,8.9-9.8
				c3-3.4,6.4-6.5,9.8-9.9c1.7-1.6,3.4-3.4,5.2-5c1.8-1.6,3.6-3.1,5.2-4.5c26.5-23.3,57.2-42.2,90-56.1L320,99c0,0,0.4-0.2,1.1-0.4
				c0.7-0.2,1.5-0.5,2.4-0.8c1.8-0.6,3.5-1.2,3.5-1.2c2.6-0.9,5.1-1.7,7.6-2.5c5.1-1.5,10.1-2.8,14.9-4.1c2.4-0.7,4.8-1.1,7.2-1.7
				c2.4-0.5,4.8-1,7.1-1.5c4.6-1.1,9.3-1.7,13.8-2.4c2.2-0.4,4.5-0.8,6.7-1.1c2.2-0.3,4.4-0.6,6.6-0.8c2.3-0.3,4.7-0.6,7-0.9
				l3.5-0.5l3.5-0.3c4.7-0.4,9.5-0.8,14.2-1.1c19-1.1,38.8-0.3,57.3,1.8c9.3,1,18.5,2.7,27.6,4.3c4.5,1,9,2,13.5,3
				c4.4,1.1,8.6,2.4,12.6,3.4c16.5,4.7,33.3,10.4,50.4,18.5c17.8,8.4,32.8,18.3,45.4,27.3c3.2,2.3,6.2,4.5,9.1,6.6
				c1.4,1.1,2.8,2.2,4.2,3.3l4.7,3.7c1.6,1.3,3.2,2.4,4.7,3.7c1.5,1.3,3,2.6,4.5,3.9c1.5,1.3,3,2.6,4.5,3.9c1.5,1.3,3,2.5,4.4,3.9
				c2.8,2.7,5.6,5.3,8.4,8c2.8,2.6,5.3,5.5,8,8.1c1.3,1.4,2.6,2.7,3.9,4.1c1.3,1.3,2.5,2.8,3.7,4.1c2.4,2.7,4.6,5.3,6.7,7.6
				c2.2,2.5,4.2,5.1,6.3,7.7c1.1,1.3,2.1,2.6,3.2,3.9l1.6,2l1.5,2c4,5.5,8.2,10.9,11.9,16.7c1.9,2.9,3.9,5.8,5.7,8.8
				c1.8,3,3.5,6,5.2,9c0.8,1.5,1.7,2.9,2.4,4.3c0.7,1.5,1.5,2.9,2.2,4.3c1.4,2.8,2.8,5.6,4.2,8.3c2.5,5.2,4.6,10.4,6.8,15.3
				c2,5,3.8,9.9,5.6,14.5c1.7,4.5,2.9,8.8,4.4,13c1.6,4.4,2.6,8.6,3.8,12.6c2.4,8,3.8,15.3,5.2,21.6c0.2,0.8,0.3,1.6,0.5,2.3
				c0.1,0.8,0.2,1.5,0.4,2.3c0.2,1.5,0.5,2.9,0.7,4.2c0.4,2.7,0.8,5.1,1.1,7.3c0.4,2.2,0.5,4.1,0.6,5.8c0.1,1.7,0.2,3.1,0.3,4.2
				C766.3,371.4,766.3,372.5,766,372.5z"/>
		</g>
		<g>
			<linearGradient id="SVGID_6_" gradientUnits="userSpaceOnUse" x1="155.9047" y1="619.2063" x2="744.1633" y2="619.2063">
				<stop  offset="0" style="stop-color:#8EB4BD"/>
				<stop  offset="0.2063" style="stop-color:#99D5C6"/>
				<stop  offset="0.5608" style="stop-color:#6F3C97"/>
			</linearGradient>
			<path class="st5" d="M156.3,568.2c0.8,0.4,2.6,2.9,5.2,7c1.2,2.1,2.9,4.5,4.7,7.3c1.8,2.8,3.8,6,6.1,9.5c2.4,3.4,5,7.2,7.8,11.2
				c3,3.9,6.2,8,9.6,12.5c7.9,9.3,16.5,19.5,26.8,29.2c1.2,1.2,2.5,2.4,3.8,3.7c1.3,1.2,2.7,2.4,4.1,3.6c2.8,2.4,5.6,5,8.6,7.5
				c3.1,2.4,6.2,4.9,9.4,7.4c1.6,1.3,3.3,2.5,5,3.7c1.7,1.2,3.4,2.4,5.1,3.6c1.7,1.2,3.4,2.5,5.2,3.7c1.8,1.1,3.6,2.3,5.4,3.5
				c3.6,2.3,7.3,4.7,11.2,6.9c1.8,1,3.5,2,5.4,3c1.8,1,3.6,2.1,5.6,3c3.9,1.9,7.8,3.8,12,5.8c4.2,1.8,8.5,3.6,13,5.5
				c4.5,1.8,9.3,3.5,14.2,5.4c4.8,1.8,9.7,3.3,14.4,4.9c2.4,0.9,4.8,1.5,7.2,2.2l7.2,2.1c9.6,2.6,19.2,4.8,28.7,6.4
				c5.1,1,10.3,1.5,15.4,2.3c5.1,0.8,10.2,1.1,15.3,1.6c2.3,0.2,4.6,0.4,6.9,0.6c2.3,0.1,4.6,0.1,6.8,0.2c4.5,0.1,9,0.4,13.4,0.2
				c4.4-0.1,8.8-0.2,13.2-0.4c4.4-0.4,8.8-0.7,13.2-1.1c9-1.1,18-2.2,26.7-4c2.2-0.4,4.5-0.8,6.7-1.3c2.2-0.5,4.5-1.1,6.7-1.6
				c4.3-1,8.6-1.9,12.8-3.2c16.1-4.3,32-10.5,47.6-17.7c15.8-7.4,30.4-15.1,42.6-23.2c1.5-1,3.1-1.9,4.6-2.9c1.5-1,2.9-2,4.3-3
				c2.8-2,5.6-3.9,8.3-5.8c2.4-1.9,5.1-4,7.9-6.2c1.4-1.1,2.8-2.1,4.1-3.2c1.3-1.1,2.6-2.2,3.8-3.3c2.5-2.2,5-4.2,7.3-6.3
				c2.3-2.1,4.5-4.2,6.6-6.2c4.3-3.9,8-7.8,11.5-11.4c3.5-3.5,6.5-7,9.2-10.1c1.4-1.6,2.6-3,3.9-4.4c1.2-1.4,2.3-2.8,3.3-4.2
				c2.1-2.7,4-5.2,5.6-7.3c1.7-2.1,2.8-4,3.9-5.4c9.1-12.4,17-26,23.7-37.9c2.9-5.5,5.9-10.7,8.1-15.9c1.2-2.5,2.4-5,3.5-7.4
				c1.1-2.4,2-4.7,3-6.9c7.6-17.7,11.3-28.6,12-28.2c0.7,0.4-1.4,11.1-7.9,29.1c-0.8,2.2-1.7,4.7-2.6,7.1c-1.1,2.5-2.2,5-3.3,7.7
				c-2.2,5.5-5.2,11.2-8.3,17.4c-1.4,2.9-3.1,5.6-4.7,8.6c-1.7,2.9-3.3,5.9-5.1,9c-1.9,3-3.8,6.1-5.9,9.4c-0.5,0.8-1,1.6-1.5,2.5
				c-0.6,0.8-1.1,1.6-1.7,2.4c-1.1,1.6-2.3,3.3-3.5,5c-1.1,1.6-2.5,3.6-4.3,6c-1.8,2.3-3.9,5-6.3,8.1c-2.4,3.2-5.3,6.4-8.4,10
				c-1.6,1.8-3.2,3.6-4.9,5.5c-1.8,1.8-3.6,3.7-5.4,5.6c-1.8,1.8-3.7,3.7-5.6,5.7c-2,1.9-4.1,3.8-6.2,5.7c-1.1,1-2.1,2-3.2,3
				c-1.1,1-2.2,2-3.4,3c-2.3,2-4.7,4-7.2,6c-1.2,1-2.4,2-3.6,3c-1.2,0.9-2.4,1.9-3.7,2.8c-2.5,1.9-5.2,4-8.3,6.4
				c-6.1,4.2-12.1,8.6-18.6,12.4l-4.8,3l-2.4,1.5l-2.5,1.4c-3.3,1.8-6.6,3.7-9.9,5.5c-3.3,1.8-6.8,3.4-10.2,5.1
				c-1.7,0.9-3.4,1.7-5.1,2.6c-1.7,0.8-3.5,1.6-5.2,2.3c-3.6,1.6-7.2,3.3-11,4.9c-3.8,1.5-7.7,3.1-11.7,4.6
				c-8.1,2.8-16.5,5.9-25.5,8.2c-2.2,0.6-4.3,1.2-6.5,1.8c-2.2,0.5-4.4,1-6.6,1.5c-4.2,0.9-8.4,2-12.7,2.7
				c-4.4,0.8-8.9,1.7-13.4,2.3c-4.5,0.6-9,1.2-13.6,1.7c-4.7,0.4-9.4,0.7-14.2,1.1c-2.4,0.2-4.8,0.3-7.2,0.3c-2.4,0-4.8,0.1-7.3,0.1
				c-4.8,0.2-9.6-0.1-14.3-0.3c-2.3-0.1-4.7-0.2-7-0.3c-2.3-0.2-4.6-0.4-6.9-0.6c-5-0.5-10-0.8-14.9-1.6c-2.4-0.3-4.9-0.7-7.3-1
				c-1.2-0.2-2.4-0.3-3.6-0.5c-1.2-0.2-2.4-0.4-3.6-0.7c-2.5-0.5-5.1-0.9-7.6-1.4c-2.5-0.5-5.1-0.9-7.6-1.6c-2.5-0.6-5-1.2-7.4-1.8
				c-2.4-0.6-4.9-1.1-7.2-1.8c-4.7-1.4-9.4-2.7-14-4.1c-4.5-1.5-8.9-3-13.3-4.4c-8.1-3-16.6-6-25.1-9.7c-2.1-0.9-4.3-1.7-6.5-2.8
				c-2.1-1-4.3-2.1-6.5-3.1c-2.2-1.1-4.4-2.1-6.6-3.2c-2.2-1.2-4.4-2.4-6.6-3.7c-2-1.1-4-2.2-6-3.4c-2-1.1-3.9-2.4-5.8-3.6
				c-3.8-2.4-7.7-4.6-11.2-7.2c-14.5-9.7-27.2-20-38.9-31.3c-5.8-5.4-10.7-10.9-15.4-15.9c-2.3-2.5-4.4-5.1-6.5-7.5
				c-2-2.5-4.1-4.7-5.8-7.1c-8-10.2-14.2-19.4-18.6-26.8c-2.2-3.7-4-7-5.6-9.8c-1.5-2.8-2.5-5.2-3.4-7.1
				C155.9,569.5,155.5,567.8,156.3,568.2z"/>
		</g>
		<g>
			<linearGradient id="SVGID_7_" gradientUnits="userSpaceOnUse" x1="110.8691" y1="293.3249" x2="759.5656" y2="293.3249">
				<stop  offset="0" style="stop-color:#8EB4BD"/>
				<stop  offset="0.2063" style="stop-color:#99D5C6"/>
				<stop  offset="0.5608" style="stop-color:#6F3C97"/>
			</linearGradient>
			<path class="st6" d="M758.6,412.7c-0.5-0.1-1-3.7-1.5-10.4c-0.1-1.7-0.2-3.5-0.4-5.6c-0.2-2-0.4-4.3-0.7-6.7
				c-0.5-4.8-0.9-10.3-1.9-16.5c-0.4-3.1-0.9-6.3-1.3-9.7c-0.6-3.4-1.3-6.9-2-10.6c-0.3-1.9-0.7-3.7-1-5.5c-0.4-1.8-0.9-3.7-1.3-5.5
				c-0.4-1.9-0.9-3.8-1.4-5.7c-0.5-1.9-0.9-4-1.6-6c-1.2-4.1-2.5-8.3-3.8-12.7c-1.5-4.3-3.1-8.9-4.7-13.6c-1.7-4.7-3.8-9.4-5.7-14.5
				c-2-5-4.5-10-6.7-15.4c-2.5-5-4.9-10-7.4-15c-2.7-4.8-5.3-9.8-8.1-14.5c-1.5-2.4-2.9-4.7-4.4-7c-1.5-2.3-2.9-4.7-4.5-6.9
				c-1.6-2.2-3.2-4.5-4.9-6.8c-0.8-1.2-1.7-2.3-2.5-3.5c-0.9-1.1-1.8-2.3-2.8-3.4c-1.9-2.3-3.8-4.7-5.7-7.1
				c-1.9-2.4-4.1-4.7-6.2-7.1c-2.2-2.4-4.2-4.9-6.6-7.2c-2.3-2.4-4.7-4.8-7.1-7.3c-2.3-2.5-5-4.9-7.5-7.4l-3.9-3.7l-1.9-1.9
				c-0.7-0.6-1.3-1.2-2-1.8c-2.6-2.4-5.2-4.7-7.7-7c-1.3-1.2-2.6-2.3-3.9-3.3c-1.3-1.1-2.6-2.2-3.9-3.2
				c-10.3-8.7-20.8-15.9-31.7-22.6c-2.9-1.6-5.8-3.2-8.7-4.8c-1.5-0.8-3-1.6-4.5-2.4c-1.5-0.7-3.1-1.5-4.7-2.3
				c-3.1-1.5-6.3-3-9.6-4.6c-3.3-1.4-6.7-2.9-10.2-4.3c-14.3-5.9-28.5-11.3-42.5-15.2c-1.8-0.5-3.5-1-5.3-1.6
				c-1.8-0.5-3.5-0.9-5.3-1.3c-3.5-0.8-7-1.7-10.4-2.5c-3.5-0.7-7-1.3-10.5-1.9l-5.2-0.9c-1.7-0.3-3.5-0.4-5.3-0.6
				c-3.2-0.4-6.4-0.7-9.7-1.1c-3.2-0.4-6.5-0.4-9.9-0.7c-3.3-0.2-6.6-0.5-10-0.5c-3.4,0-6.8-0.1-10.2-0.1c-1.7,0-3.4-0.1-5.2,0
				c-1.7,0.1-3.5,0.1-5.2,0.2c-3.5,0.1-6.9,0.2-10.4,0.3c-3.5,0.3-6.9,0.5-10.3,0.8c-1.7,0.1-3.4,0.2-5.1,0.4
				c-1.7,0.1-3.3,0.4-5,0.6c-3.3,0.4-6.6,0.8-9.9,1.2c-1.6,0.2-3.2,0.4-4.8,0.7c-1.6,0.3-3.2,0.6-4.8,0.8c-3.2,0.6-6.3,1-9.4,1.7
				c-3.1,0.7-6.1,1.4-9.1,2.1l-4.8,1.1c-1.6,0.4-3.1,0.9-4.7,1.3c-3.1,0.9-6.2,1.8-9.3,2.7c-3.1,0.9-6.1,2.1-9.2,3.1
				c-3,1.1-6.1,2-9,3.2c-23.8,9.2-46,20.7-65.9,34c-2.5,1.6-4.9,3.4-7.3,5.2c-2.4,1.7-4.8,3.4-7,5c-2.1,1.7-4.3,3.4-6.5,5.2
				c-2.1,1.8-4.4,3.4-6.4,5.3c-8.4,7.3-16.6,15-24.3,23.3c-1.9,2.1-3.9,4.1-5.9,6.2c-2,2.1-3.8,4.4-5.8,6.6
				c-1.9,2.2-3.8,4.3-5.6,6.4c-1.7,2.2-3.4,4.3-5.1,6.3c-1.6,2.1-3.3,4-4.8,6c-1.5,2-2.9,4-4.3,5.9c-1.4,1.9-2.8,3.8-4.1,5.6
				c-1.2,1.9-2.4,3.7-3.6,5.5c-1.2,1.8-2.3,3.5-3.4,5.2c-0.5,0.8-1.1,1.7-1.6,2.5c-0.5,0.8-1,1.7-1.4,2.5c-2.1,3.6-4.1,7.2-6.1,10.7
				c-3.7,7.4-7.4,14.4-10.2,21.2c-3.1,6.7-5.6,13.7-8.1,19.9c-2.3,6.3-4.1,12.1-5.6,16.5c-1.4,5-2.6,9.4-3.7,13.3
				c-1,3.8-1.7,7.1-2.3,9.8c-0.6,2.8-1.3,5.6-1.9,8.5c-0.5,2.9-1,5.7-1.5,8.6c-1.1,5.7-1.8,11.3-2.5,16.7
				c-0.8,5.2-1.1,10.4-1.6,15.4c-0.2,2.5-0.5,5-0.6,7.4c-0.1,2.5-0.2,4.9-0.3,7.2c-0.1,2.4-0.2,4.7-0.3,7c-0.1,2.3,0,4.6,0,6.8
				c0,2.2,0,4.4,0.1,6.6c0,2.2,0,4.3,0.2,6.3c0.2,4.3,0.4,8.4,0.7,12.4c0.2,4,0.7,7.7,1,11.1c0.5,7,1.5,13,2.1,18.2
				c0.2,1.3,0.3,2.6,0.5,3.8c0.2,1.2,0.4,2.3,0.6,3.4c0.4,2.2,0.7,4.1,1,5.9c1,7.1,1.8,10.9,1.4,10.9c-0.2,0-0.7-1-1.4-3
				c-0.7-2-1.5-5-2.5-8.8c-0.5-1.9-1-4.1-1.6-6.4c-0.6-2.3-1-4.9-1.5-7.7c-0.5-2.7-1-5.7-1.6-8.8c-0.5-3.1-0.8-6.4-1.3-9.8
				c-1.1-6.9-1.4-14-2.1-22.1c-0.3-4.2-0.3-8.6-0.5-13.1c-0.2-4.5,0-9.2,0.1-14c0.1-2.4,0.1-4.9,0.2-7.3c0.2-2.5,0.4-5,0.6-7.5
				c0.2-2.5,0.4-5.1,0.6-7.7c0.2-2.6,0.6-5.2,0.9-7.9c0.7-5.2,1.2-10.4,2.3-15.7c0.5-2.6,0.9-5.3,1.4-8.1c0.2-1.4,0.5-2.8,0.8-4.2
				c0.3-1.4,0.6-2.8,1-4.2c0.6-2.7,1.3-6.1,2.3-10.1c1.1-4,2.4-8.6,3.9-13.9c1.8-5.6,3.7-11,5.7-16.8c1.1-2.9,2.3-5.8,3.5-8.9
				c0.6-1.6,1.2-3.2,1.9-4.8c0.7-1.6,1.5-3.3,2.2-5c1.6-3.5,3.1-7.1,4.9-10.8c1.8-3.6,3.7-7.4,5.7-11.2c2-3.9,4.4-7.8,6.8-12
				c0.6-1.1,1.3-2.2,1.9-3.3c0.7-1.1,1.4-2.2,2.1-3.2c1.4-2.2,2.8-4.3,4.2-6.4c0.7-1.1,1.4-2.1,2.1-3.2c0.8-1,1.5-2,2.2-3
				c1.5-2,3-4,4.5-6c2.9-4,6.1-7.7,9.1-11.4c1.5-1.8,3-3.8,4.6-5.5c1.6-1.8,3.1-3.5,4.7-5.2c1.5-1.7,3-3.4,4.6-5.2
				c1.7-1.7,3.4-3.5,5.2-5.4c1.8-1.9,3.5-3.7,5.4-5.7c1.9-1.8,3.8-3.7,5.8-5.6c2-1.9,4-3.9,6-5.8c2.1-1.9,4.3-3.8,6.5-5.7
				c8.7-7.8,19.2-15.6,28.9-22.2c20-13.5,42.4-25,66.4-34.3l4.5-1.8l4.6-1.5c3.1-1,6.1-2.1,9.2-3.1c3.1-1,6.3-1.8,9.4-2.7l4.7-1.3
				l2.4-0.7l2.4-0.5c6.6-1.5,13.3-3.2,20.1-4.2c3.4-0.5,6.7-1.2,10-1.6c3.3-0.4,6.7-0.8,9.9-1.1c1.7-0.2,3.3-0.4,4.9-0.6
				c1.6-0.1,3.3-0.2,4.9-0.3c3.2-0.2,6.5-0.4,9.7-0.7l2.4-0.2l2.4,0l4.8-0.1c3.2-0.1,6.4-0.2,9.6-0.3c3.2,0.1,6.5,0.1,9.8,0.2
				c3.3,0.1,6.6,0,10,0.3c6.7,0.5,13.6,0.8,20.5,1.8c2,0.2,3.9,0.5,5.8,0.7l2.9,0.4l2.9,0.5c3.8,0.7,7.6,1.4,11.4,2.1
				c3.8,0.7,7.5,1.7,11.1,2.6c1.8,0.4,3.7,0.9,5.5,1.3c1.8,0.5,3.6,1,5.4,1.6c3.6,1,7.1,2.1,10.5,3.1c3.4,1.2,6.8,2.4,10.1,3.5
				c1.7,0.6,3.3,1.1,4.9,1.7c1.6,0.6,3.2,1.3,4.8,1.9c3.2,1.2,6.3,2.4,9.3,3.6c3.1,1.3,6.2,2.6,9.4,4c1.6,0.7,3.2,1.3,4.8,2
				c1.6,0.7,3.2,1.5,4.8,2.2c3.2,1.5,6.4,3.1,9.8,4.7c3.2,1.7,6.5,3.5,9.8,5.4c13.5,7.6,26.6,16.8,37,25.5c5.5,4.3,10.2,8.8,15,13
				c2.4,2,4.5,4.3,6.7,6.3c2.2,2.1,4.4,4.1,6.5,6.2c2.1,2.2,4.3,4.4,6.5,6.6c2.2,2.2,4.4,4.4,6.5,6.7c4.2,4.7,8.6,9.3,12.6,14.4
				c2,2.5,4.2,5,6.2,7.6c2,2.7,3.9,5.4,5.9,8.1c1,1.4,1.9,2.7,2.9,4.1c0.9,1.4,1.8,2.8,2.7,4.2c1.8,2.8,3.5,5.5,5.1,8.1
				c1.6,2.7,3,5.4,4.5,8c1.4,2.6,2.9,5.1,4.2,7.7c2.5,5.1,5,9.9,7.2,14.6c8.3,17.8,15.4,36.1,20.2,53.6c1.4,4.3,2.3,8.7,3.3,13
				c0.5,2.1,1,4.2,1.5,6.3c0.4,2,0.7,4,1.1,5.9c0.7,3.8,1.3,7.4,1.9,10.9c0.4,3.5,0.8,6.8,1.2,10c0.9,6.3,1.1,12,1.4,16.9
				c0.1,2.5,0.3,4.7,0.3,6.8c0,2.1,0,4-0.1,5.6C759.4,409.3,759.1,412.8,758.6,412.7z"/>
		</g>
		<g>
			<linearGradient id="SVGID_8_" gradientUnits="userSpaceOnUse" x1="555.7684" y1="211.3424" x2="782.8984" y2="211.3424">
				<stop  offset="0" style="stop-color:#8EB4BD"/>
				<stop  offset="0.2063" style="stop-color:#99D5C6"/>
				<stop  offset="0.5608" style="stop-color:#6F3C97"/>
			</linearGradient>
			<path class="st7" d="M782.3,343c-1,0-2.5-4.2-4.7-11.9c-0.5-1.9-1.1-4.1-1.7-6.4c-0.7-2.3-1.5-4.9-2.3-7.6
				c-0.8-2.7-1.6-5.6-2.6-8.7c-1-3.1-2.1-6.3-3.3-9.7c-2.1-6.8-5.2-14.1-8.1-21.9c-3.4-7.8-6.9-16.3-11-24.4
				c-8.1-16.4-17.1-32.3-28.8-47.6c-10.7-14.1-22.3-27.5-34.3-39.4c-2.9-3-6.1-5.7-9-8.6c-1.3-1.2-2.7-2.5-4-3.7
				c-1.3-1.2-2.8-2.4-4.2-3.5c-2.8-2.3-5.6-4.6-8.3-6.9c-2.8-2.2-5.7-4.3-8.4-6.4c-11.1-8.4-22.5-15.5-32.1-21.5
				c-2.3-1.5-4.5-2.7-6.6-3.9c-2-1.2-3.9-2.2-5.5-3.2c-3.3-1.9-5.7-3.4-7.5-4.2c-7.1-3.8-13.2-7.2-18.7-9.8
				c-5.4-2.7-9.8-5.1-13.6-6.9c-7.4-3.6-12-6.3-11.9-7c0.1-0.9,5.8,0.6,15.4,4c2.4,0.8,5,1.9,7.7,3.1c2.7,1.2,5.6,2.5,8.6,3.8
				c3,1.3,6,2.9,9.1,4.5c3.1,1.6,6.3,3.2,9.4,5c1.5,0.9,3.7,2.2,6.4,3.8c1.4,0.8,2.9,1.7,4.5,2.7c1.6,1,3.4,2,5.2,3.2
				c3.5,2.3,7.7,4.9,12.5,8c2.3,1.6,4.9,3.4,7.5,5.2c1.3,0.9,2.7,1.9,4.1,2.9c0.7,0.5,1.4,1,2.1,1.5c0.7,0.5,1.4,1.1,2.1,1.6
				c2.9,2.2,5.9,4.5,9,6.9c0.8,0.6,1.6,1.2,2.4,1.8c0.8,0.7,1.6,1.3,2.3,2c1.6,1.3,3.2,2.7,4.8,4.1c1.6,1.4,3.3,2.9,5,4.3
				c1.7,1.5,3.3,3.1,5,4.7c3,2.9,6.1,5.8,9.1,8.9c11.9,12.2,23.4,25.9,34,40.3c2.7,3.9,5.7,8.1,8.6,12.4c2.7,4.4,5.5,8.7,8.1,12.8
				c4.9,8.6,9.6,16.8,13.5,24.8c1,2,2,4,3,5.9c0.9,1.9,1.8,3.9,2.6,5.8c1.7,3.8,3.4,7.4,5,10.9c1.5,3.8,3,7.4,4.5,10.9
				c0.7,1.8,1.4,3.5,2.1,5.2c0.6,1.7,1.2,3.4,1.8,5.1c1.2,3.3,2.3,6.6,3.4,9.7c1,3.1,1.8,6.1,2.7,8.9c0.8,2.8,1.5,5.5,2.2,8
				c0.7,2.5,1.1,4.8,1.5,6.9C782.9,338,783.4,342.9,782.3,343z"/>
		</g>
	</g>
	<g>
		<g>
			<linearGradient id="SVGID_9_" gradientUnits="userSpaceOnUse" x1="99.8411" y1="418.7255" x2="745.993" y2="418.7255">
				<stop  offset="0" style="stop-color:#8EB4BD"/>
				<stop  offset="0.2063" style="stop-color:#99D5C6"/>
				<stop  offset="0.5608" style="stop-color:#6F3C97"/>
			</linearGradient>
			<path class="st8" d="M722.9,402.8c-0.2-14.5-0.4-28.9-2-43.4c-1.5-14.4-3.8-28.9-8.1-43c-8.2-28.2-20-55.5-36-80.7
				c-8.1-12.5-17.4-24.5-27.5-35.7c-10.2-11.1-21.2-21.6-32.6-31.6c-11.4-9.9-23.9-18.7-37-26.8l-10-5.8c-3.4-1.9-6.8-3.6-10.2-5.4
				c-3.4-1.9-6.9-3.5-10.4-5.2c-3.5-1.7-6.9-3.5-10.5-4.9c-3.6-1.6-7.3-3.2-10.9-4.9c-3.7-1.5-7.3-3-11-4.5
				c-3.7-1.6-7.4-2.8-11.1-4.2l-5.6-2c-1.9-0.7-3.8-1.2-5.7-1.8c-15.2-5-31-8.4-47.4-10c-16.4-1.7-33-1.7-49.5-0.7
				c-16.6,0.9-33.2,3.6-49.4,7.5l-6.1,1.5l-3,0.8l-3,0.9c-4,1.3-8,2.6-12,4c-7.9,3.1-15.7,6.1-23.3,9.8c-15.2,7.2-30,15.4-44.1,24.4
				c-14.2,8.9-27.8,18.8-40.7,29.7c-12.8,11-24.7,22.9-35.7,35.8c-2.6,3.2-5.3,6.4-7.9,9.7l-7.3,10.1l-1.8,2.5l-1.7,2.6l-3.4,5.2
				l-3.4,5.3l-3.1,5.4l-3.1,5.4c-1,1.8-2.1,3.6-3,5.5l-5.7,11.1c-3.5,7.6-7.2,15-10.2,22.8c-3.4,7.6-6.3,15.4-9.5,23.1l-4.4,11.7
				l-1.1,2.9l-1,3l-1.9,6l-1.9,6c-0.6,2-1.1,4-1.7,6.1c-1.1,4.1-2.2,8.1-3.1,12.3c-0.8,4.1-1.6,8.3-2.3,12.5
				c-0.4,2.1-0.7,4.2-0.9,6.3l-0.6,6.3l-0.5,6.3c-0.1,2.1-0.2,4.2-0.2,6.4c-0.1,4.2-0.2,8.5-0.2,12.7l0.5,12.7l0.2,3.2l0.3,3.2
				l0.6,6.3l0.6,6.3c0.2,2.1,0.6,4.2,0.9,6.3c0.6,4.2,1.2,8.4,1.9,12.6l2.4,12.5l0.6,3.1l0.7,3.1l1.4,6.2
				c3.7,16.5,8.7,32.8,15.2,48.5c0.8,2,1.5,4,2.4,5.9l2.6,5.8c1.8,3.8,3.4,7.8,5.4,11.5l5.8,11.3l6.3,11c8.6,14.6,17.6,29,27.8,42.6
				c10.3,13.6,21.6,26.5,34.2,38c25.5,22.8,55.1,40.8,86.2,54.6l5.9,2.5l2.9,1.2l3,1.1c4,1.5,8,2.9,12,4.2
				c8.1,2.4,16.3,4.8,24.6,6.5c8.2,2,16.6,3.2,24.8,4.7c8.4,1.1,16.6,2.4,25,3.1c4.2,0.5,8.3,1,12.5,1.3c4.2,0.4,8.4,0.8,12.6,1.2
				c8.4,0.5,16.9,1.3,25.3,1.3c8.5,0.4,17-0.1,25.5-0.5c8.4-0.8,16.9-1.7,25.2-3.5c18.9-3.9,37.1-10.4,54.4-18.3
				c17.3-8,33.6-17.5,49.6-27.5c32-20.1,59.7-45.8,82.2-75.2c11.3-14.7,21.8-30,31-46.2c9.1-16.2,16.9-33.1,22.1-50.7
				c5.2-17.5,8.6-35.4,10.3-53.2l0.6-6.7l0.3-3.3l0.1-3.4c0.1-4.5,0.4-8.9,0.4-13.4c-0.1-4.4-0.1-8.9-0.2-13.4
				c-0.1-4.4-0.5-8.9-0.7-13.3c-0.3-5.8-7.6-6.2-7.6-0.2c0,30.7-4.1,61.6-13.4,91.1c-1.2,3.7-2.3,7.4-3.6,11l-3.9,10.9
				c-1.4,3.6-2.9,7.2-4.3,10.8c-1.4,3.6-3.1,7.1-4.7,10.6c-3.1,7.1-6.9,13.9-10.6,20.8l-6,10c-1,1.7-2.1,3.3-3.2,4.9l-3.3,4.8
				c-1.1,1.6-2.2,3.2-3.3,4.8l-3.5,4.7c-2.4,3.1-4.6,6.3-7.2,9.2l-7.5,9l-7.9,8.7c-10.8,11.3-22.3,22-34.7,31.6
				c-12.5,9.5-25.5,18.3-39.2,26.1c-13.7,7.8-28.1,14.4-42.8,19.9c-14.8,5.6-30.4,8.9-46,11.3c-3.9,0.5-7.8,1.2-11.7,1.6l-11.8,1.1
				c-3.9,0.4-7.8,0.5-11.8,0.8l-5.9,0.4l-5.9,0.2c-15.7,0.8-31.4,1.3-47.2,0.9c-15.9-0.4-31.8-2.3-47.2-6.5l-5.8-1.6
				c-1.9-0.5-3.8-1.1-5.7-1.9c-3.8-1.4-7.5-2.8-11.2-4.3c-7.3-3.2-14.6-6.5-21.6-10.4c-14.1-7.5-27.5-16-40.7-24.6
				c-13.2-8.7-25.9-18.1-37.6-28.7c-11.7-10.5-22.7-21.9-32.8-34.1c-9.9-12.3-19.4-25-27.9-38.4l-6.2-10.2l-5.6-10.5
				c-1.9-3.5-3.5-7.1-5.2-10.7l-2.5-5.4c-0.8-1.8-1.5-3.7-2.2-5.5c-1.4-3.7-2.9-7.4-4.2-11.1l-3.8-11.3c-1.2-3.8-2.2-7.6-3.3-11.4
				c-0.5-1.9-1.1-3.8-1.6-5.7l-1.4-5.8c-2-7.7-3.2-15.5-4.6-23.4c-1-7.9-2.1-15.7-2.5-23.7c-0.7-7.9-0.7-15.8-0.9-23.8l0.2-11.9
				c0-4,0.3-7.9,0.5-11.9c0.4-7.9,1.4-15.8,2.4-23.7c1.4-7.8,2.6-15.7,4.7-23.4c1.8-7.7,4.4-15.2,6.9-22.7l4.4-11l1.1-2.7l1.2-2.7
				l2.5-5.4c6.7-14.2,14.3-28,22.6-41.2c8.3-13.2,17.2-26.2,27.1-38.3c10-12.1,20.8-23.5,32.6-33.7c11.9-10.1,25.1-18.3,38.7-25.5
				c13.5-7.3,27.7-13.1,41.7-19.1l5.3-2.2c1.8-0.7,3.5-1.5,5.3-2.1l10.7-3.9c7.3-2.3,14.5-4.7,21.9-6.4c7.3-2,14.8-3.3,22.2-4.8
				c7.5-1.1,15-2.3,22.5-2.8l5.6-0.5c1.9-0.2,3.8-0.2,5.7-0.3c3.8-0.1,7.5-0.3,11.3-0.4c7.5,0.1,15.1,0,22.5,0.6
				c7.5,0.3,14.9,1.4,22.4,2.2c7.4,1.3,14.8,2.3,22,4.1c16.7,3.8,33.2,8.6,49,14.9c15.8,6.3,31,14.2,45.1,23.5
				c28,18.7,52.1,42.4,70.5,69.6c8.8,13,16.5,26.5,23.2,40.3c1.6,3.5,3.4,6.9,4.8,10.4l4.5,10.5l4,10.6c0.7,1.7,1.3,3.6,1.9,5.4
				l1.8,5.4c4.7,14.4,8.7,29,11.9,43.8c3.1,14.9,5.3,30,6.6,45.4C712.2,415.8,722.9,416.2,722.9,402.8z"/>
		</g>
		<g>
			<linearGradient id="SVGID_10_" gradientUnits="userSpaceOnUse" x1="135.0817" y1="409.1995" x2="721.9308" y2="409.1995">
				<stop  offset="0" style="stop-color:#8EB4BD"/>
				<stop  offset="0.2063" style="stop-color:#99D5C6"/>
				<stop  offset="0.5608" style="stop-color:#6F3C97"/>
			</linearGradient>
			<path class="st9" d="M721.8,381c-0.3-3.6-0.5-7.3-0.6-10.9c-0.2-3.6-0.6-7.2-0.9-10.9c-0.1-1.8-0.2-3.6-0.4-5.5l-0.6-5.4
				l-0.6-5.4c-0.2-1.8-0.4-3.6-0.7-5.4l-1.8-10.9c-0.7-3.6-1.6-7.2-2.4-10.8c-0.4-1.8-0.8-3.6-1.3-5.4l-1.6-5.3
				c-1.1-3.5-2.1-7.1-3.6-10.6l-4.2-10.4l-4.7-10.2c-1.5-3.5-3.4-6.7-5.1-10.1l-2.6-5c-0.9-1.7-1.9-3.3-2.8-4.9
				c-1.9-3.2-3.7-6.6-5.8-9.7l-6.2-9.5c-4.4-6.1-8.7-12.4-13.6-18.2c-9.5-11.8-20.4-22.7-32.2-32.4c-11.8-9.7-24.1-18.7-36.9-27
				c-12.7-8.3-26-15.7-39.9-22.1c-13.9-6.2-28.4-11.5-43.2-15.5c-14.8-3.9-29.8-6.9-45.1-8.9c-15.3-1.9-30.7-2.4-46.2-1.7
				c-15.5,0.9-30.8,3.6-45.7,7.3c-15,3.8-29.5,8.8-43.9,14.2c-3.6,1.4-7.1,2.8-10.8,4.1l-10.6,4.4c-3.6,1.4-7,3.1-10.6,4.7l-5.3,2.4
				c-1.8,0.8-3.4,1.7-5.2,2.6c-13.9,6.8-27.1,15-39.3,24.6c-6.2,4.7-11.7,10.1-17.3,15.5l-7.9,8.5c-2.6,2.8-5,5.9-7.5,8.8
				c-1.2,1.5-2.5,2.9-3.7,4.5l-3.5,4.6c-2.3,3.1-4.7,6-6.9,9.2l-6.7,9.3c-2.1,3.2-4.3,6.3-6.5,9.5c-8.5,12.7-16.9,25.5-24.4,38.9
				c-7.3,13.5-13.7,27.7-18.2,42.5c-4.5,14.8-6.9,30.1-8.5,45.3l-0.9,11.5c-0.2,3.8-0.3,7.7-0.4,11.5c0,1.9-0.2,3.8-0.2,5.7l0,5.7
				l0,5.7l0,2.9l0.1,2.9l0.3,11.5c0.2,3.8,0.5,7.7,0.7,11.5c0.1,1.9,0.2,3.9,0.4,5.8l0.6,5.7l0.6,5.8l0.3,2.9l0.4,2.9l1.8,11.5
				c0.7,3.8,1.6,7.6,2.4,11.3c0.7,3.8,1.8,7.5,2.8,11.2c1,3.7,2,7.5,3.4,11.1c4.8,14.7,11.3,28.8,18.7,42.3
				c3.6,6.8,7.8,13.3,11.8,19.8l6.4,9.6c1,1.6,2.2,3.2,3.3,4.7l3.4,4.7c1.1,1.5,2.2,3.1,3.4,4.7l3.5,4.6c2.4,3,4.6,6.2,7.1,9.1
				l7.3,9l7.7,8.7c10.4,11.4,21.7,22,34.2,31.3c25.1,18.2,53,32.1,82.2,41.7l5.5,1.8c1.8,0.6,3.7,1.2,5.5,1.6l11.2,2.8
				c7.5,1.5,15,3.1,22.6,3.9c7.6,1.2,15.2,1.6,22.8,2.3c7.6,0.3,15.2,0.8,22.8,0.7c7.5,0.2,15.1-0.3,22.6-0.4c7.5-0.7,15-1,22.5-2.2
				c7.5-0.8,14.9-2.4,22.2-3.8c7.3-1.8,14.6-3.5,21.7-5.9l5.4-1.7c1.8-0.6,3.5-1.3,5.3-1.9c3.5-1.4,7-2.6,10.5-4.1l10.2-4.5
				c3.4-1.5,6.7-3.3,10-5c1.7-0.9,3.3-1.7,5-2.5l4.8-2.8l4.8-2.8l2.4-1.4l2.3-1.5l9.4-6l9.1-6.4c12-8.7,23.6-17.9,34.4-28
				c10.7-10.2,20.7-21.1,29.5-32.8c8.8-11.8,15.5-24.7,21.4-37.8l4.2-9.9c1.3-3.3,2.5-6.7,3.8-10c1.4-3.3,2.4-6.7,3.6-10
				c1.2-3.3,2.5-6.7,3.5-10.1c4.8-13.4,9.5-26.9,13.3-40.9l1.4-5.2l0.7-2.6l0.6-2.6c0.7-3.5,1.4-7.1,2.2-10.6
				c0.6-3.6,1-7.1,1.4-10.7c0.5-3.6,0.6-7.2,0.7-10.7c0.1-3.9-0.4-7.2-1.5-9.7c-1.1-2.5-2.5-4.2-4-4.8c-1.5-0.6-3-0.2-4.2,1.5
				c-1.3,1.7-2.1,4.6-2.8,9c-2.2,16.6-6.3,32.6-11.4,48.1c-5.2,15.5-11.4,30.4-18,45.3c-13.1,29.8-32.1,57.2-55.1,80.8
				c-22.8,23.4-49.8,43.1-80.3,56.2c-15.2,6.6-30.7,12.4-46.8,16.8c-16.1,4.4-32.7,7.3-49.5,7.8c-7.1,0.3-14.3-0.3-21.4-0.8
				c-7.1-1-14.1-1.8-21-3.4c-7-1.3-13.8-3.3-20.6-4.9c-3.4-1-6.8-2-10.1-2.9c-1.7-0.4-3.4-1-5-1.5l-5-1.5c-1.7-0.5-3.4-0.9-5-1.5
				l-5-1.7c-3.3-1.1-6.7-2.1-9.9-3.4l-9.8-3.7l-9.7-4.2c-12.8-5.8-25.2-12.6-36.8-20.5c-11.6-8-22.8-16.6-33.4-25.9
				c-2.6-2.4-5.3-4.7-7.8-7.2l-7.5-7.5c-4.8-5.2-9.5-10.5-13.8-16.2l-3.3-4.2l-3-4.4l-3-4.3l-1.5-2.2l-1.4-2.2l-5.6-9l-5.2-9.2
				c-6.7-12.4-12.5-25.4-17.3-38.6c-4.7-13.3-7.7-27.1-9.8-41l-1.4-10.4l-0.9-10.5c-0.4-3.5-0.4-7-0.6-10.5l-0.3-5.2
				c-0.1-1.7-0.1-3.5-0.1-5.2c0-3.4-0.2-6.8-0.1-10.2l0.4-10.2c0-3.4,0.5-6.8,0.8-10.2c0.3-3.4,0.5-6.8,1.1-10.1
				c1.6-13.5,4.6-26.8,8.2-39.9c3.5-13.1,8-25.9,13.4-38.4c2.5-6.3,5.7-12.4,8.7-18.5l5-8.9c0.8-1.5,1.7-2.9,2.6-4.4l2.8-4.3
				l2.7-4.3l2.9-4.2l2.9-4.2l1.4-2.1l1.5-2l6.1-8.2l6.5-8c8.8-10.5,18.3-20.4,28.9-29.2c10.7-8.7,22.2-16.2,34.2-22.8
				c12-6.6,24.5-12,37-17.2c12.6-5.2,25.5-9.3,38.7-12.6l5-1.2c1.7-0.4,3.3-0.8,5-1.1l10-1.9c3.4-0.6,6.7-0.9,10.1-1.4
				c1.7-0.2,3.4-0.5,5.1-0.6l5.1-0.4l5.2-0.3l2.6-0.1c0.9,0,1.7,0,2.6,0l10.3,0.2c3.4,0.2,6.9,0.6,10.3,0.8c1.7,0.2,3.4,0.3,5.1,0.5
				l5.1,0.8l5.1,0.8l2.5,0.4l2.5,0.5l10,2l9.9,2.3c3.3,0.7,6.6,1.6,9.9,2.5c6.6,1.5,13,3.6,19.5,5.5l9.6,3.3
				c1.6,0.5,3.2,1.1,4.8,1.8l4.7,1.9l4.7,1.9l4.6,2.1l4.6,2.1l2.3,1.1l2.3,1.2l9,4.7l8.7,5.2c11.4,7.3,22.6,15,33.2,23.4
				c10.5,8.6,20.4,17.9,29.3,28.1c8.9,10.2,16.8,21.3,24,32.6c3.7,5.6,6.9,11.6,10.2,17.4l4.6,9c0.8,1.5,1.5,3,2.2,4.6l2.1,4.6
				c11.3,24.5,19,50.4,23.4,77.3c0.5,2.2,0.7,4.3,1.1,6.3c0.4,1.9,0.8,3.7,1.3,5.4c1,3.3,2,6.1,3.1,8.3c2.2,4.4,5,6.7,7.6,6.6
				c2.7-0.1,5.3-2.5,7.3-7.4c0.5-1.2,1-2.6,1.4-4.1c0.4-1.5,0.7-3.2,0.9-5c0.2-1.8,0.4-3.8,0.5-5.9C721.9,385.7,722,383.4,721.8,381
				z"/>
		</g>
	</g>
</g>
</svg>
